{
  "accessors": [
    {
      "bufferView": 2,
      "componentType": 5126,
      "count": 19697,
      "max": [
        2.313727617263794,
        0.9751192927360535,
        1.326906681060791
      ],
      "min": [
        -3.421109437942505,
        -4.866906642913818,
        -3.4544551372528076
      ],
      "type": "VEC3"
    },
    {
      "bufferView": 2,
      "byteOffset": 236364,
      "componentType": 5126,
      "count": 19697,
      "max": [
        0.9999966621398926,
        0.9999997615814209,
        0.9999423027038574
      ],
      "min": [
        -0.9999916553497314,
        -0.9999997615814209,
        -0.9999747276306152
      ],
      "type": "VEC3"
    },
    {
      "bufferView": 1,
      "componentType": 5126,
      "count": 19697,
      "max": [
        0.99979168176651,
        0.9000597596168518
      ],
      "min": [
        0.00020835270697716624,
        0.00020835270697716624
      ],
      "type": "VEC2"
    },
    {
      "bufferView": 0,
      "componentType": 5125,
      "count": 114816,
      "type": "SCALAR"
    }
  ],
  "asset": {
    "extras": {
      "author": "endeflo (https://sketchfab.com/endeflo)",
      "license": "CC-BY-4.0 (http://creativecommons.org/licenses/by/4.0/)",
      "source": "https://sketchfab.com/3d-models/cheems-2a0dded91c43413d825d147923f6efb8",
      "title": "Cheems"
    },
    "generator": "Sketchfab-11.26.0",
    "version": "2.0"
  },
  "bufferViews": [
    {
      "buffer": 0,
      "byteLength": 459264,
      "name": "floatBufferViews",
      "target": 34963
    },
    {
      "buffer": 0,
      "byteLength": 157576,
      "byteOffset": 459264,
      "byteStride": 8,
      "name": "floatBufferViews",
      "target": 34962
    },
    {
      "buffer": 0,
      "byteLength": 472728,
      "byteOffset": 616840,
      "byteStride": 12,
      "name": "floatBufferViews",
      "target": 34962
    }
  ],
  "buffers": [
    {
      "byteLength": 1089568,
      "uri": "scene.bin"
    }
  ],
  "images": [
    {
      "uri": "textures/Material.002_baseColor.png"
    }
  ],
  "materials": [
    {
      "doubleSided": true,
      "name": "Material.002",
      "pbrMetallicRoughness": {
        "baseColorTexture": {
          "index": 0
        },
        "metallicFactor": 0.0,
        "roughnessFactor": 0.5
      }
    }
  ],
  "meshes": [
    {
      "name": "Object_0",
      "primitives": [
        {
          "attributes": {
            "NORMAL": 1,
            "POSITION": 0,
            "TEXCOORD_0": 2
          },
          "indices": 3,
          "material": 0,
          "mode": 4
        }
      ]
    }
  ],
  "nodes": [
    {
      "children": [
        1
      ],
      "matrix": [
        1.0,
        0.0,
        0.0,
        0.0,
        0.0,
        2.220446049250313e-16,
        -1.0,
        0.0,
        0.0,
        1.0,
        2.220446049250313e-16,
        0.0,
        0.0,
        0.0,
        0.0,
        1.0
      ],
      "name": "Sketchfab_model"
    },
    {
      "children": [
        2
      ],
      "name": "root"
    },
    {
      "children": [
        3
      ],
      "matrix": [
        1.0,
        0.0,
        0.0,
        0.0,
        0.0,
        2.220446049250313e-16,
        1.0,
        0.0,
        0.0,
        -1.0,
        2.220446049250313e-16,
        0.0,
        0.0,
        0.0,
        0.0,
        1.0
      ],
      "name": "GLTF_SceneRootNode"
    },
    {
      "children": [
        4
      ],
      "matrix": [
        5.224923636673025,
        0.0,
        8.526445235758564,
        0.0,
        -0.0,
        10.000007629394531,
        0.0,
        0.0,
        -8.526437917455405,
        0.0,
        5.224919152087233,
        0.0,
        -0.8594977855682373,
        48.64054870605469,
        0.659358024597168,
        1.0
      ],
      "name": "Cube.001_0"
    },
    {
      "mesh": 0,
      "name": "Object_4"
    }
  ],
  "samplers": [
    {
      "magFilter": 9729,
      "minFilter": 9987,
      "wrapS": 10497,
      "wrapT": 10497
    }
  ],
  "scene": 0,
  "scenes": [
    {
      "name": "Sketchfab_Scene",
      "nodes": [
        0
      ]
    }
  ],
  "textures": [
    {
      "sampler": 0,
      "source": 0
    }
  ]
}
